PathFileType	4	(X/Y/Z)	D:\TRACE\v60_Jaco2_6-2-23\BothDRS_Motion2_3-v60.trc
DataRate	CameraRate	NumFrames	NumMarkers	Units	OrigDataRate	OrigDataStartFrame	OrigNumFrames
100.00	100.00	      31	9	mm	100.00	5626	      7500
Frame#	Time	front left toe			Front right toe			aft left toe			aft right toe			Arm			FL body			FR body			AL Body			AR Body			
		X1	Y1	Z1	X2	Y2	Z2	X3	Y3	Z3	X4	Y4	Z4	X5	Y5	Z5	X6	Y6	Z6	X7	Y7	Z7	X8	Y8	Z8	X9	Y9	Z9	

5626	56.250	-162.92068	136.09294	-122.95758	267.29312	10.13096	-169.13904	-42.79152	31.13509	506.35867	277.34344	149.93790	456.78845	122.68734	1123.03564	-715.17377	-52.33786	573.65076	-272.04150	107.58649	573.58417	-290.46313	54.53115	577.12146	667.31104	211.35387	571.82220	651.64105	
5627	56.260	-166.16182	131.14954	-126.74990	266.35257	9.73381	-169.56891	-43.03985	31.39276	506.14703	273.46609	144.17256	453.71008	121.10746	1121.77686	-717.02460	-53.93982	572.72913	-273.23309	105.46767	572.84613	-291.54068	52.23752	578.29364	666.16132	208.97818	572.85358	650.53943	
5628	56.270	-169.47716	125.73225	-130.79019	265.72617	9.46222	-169.78247	-43.62074	32.24128	505.71634	270.10388	137.32310	450.11539	119.89619	1120.53442	-719.07001	-55.91527	571.83252	-274.39056	102.97081	571.57892	-292.01123	50.00834	579.50745	665.08112	206.73822	574.04193	649.32178	
5629	56.280	-173.05882	120.25225	-135.06877	265.56177	9.33573	-169.79346	-44.20446	32.87314	505.56110	266.00067	129.77878	446.58804	119.10812	1119.68530	-721.30695	-57.63500	571.23743	-275.92642	101.20553	571.10345	-293.75079	47.65195	580.47498	663.90741	204.49757	575.38800	649.07715	
5630	56.290	-177.45410	113.47305	-139.32295	264.96594	9.10090	-170.03726	-46.38492	34.87681	504.78976	262.45740	121.43597	442.45493	118.28387	1118.39624	-723.52106	-59.94059	570.68774	-277.18503	99.96519	570.56598	-295.16739	45.12170	581.49359	662.52240	201.89909	575.92462	647.11792	
5631	56.300	-181.02438	105.38763	-143.42743	265.33557	8.99888	-170.08173	-46.72441	35.36266	504.43726	258.42374	112.70013	438.60394	117.38960	1116.45447	-725.71234	-62.15636	570.06598	-278.67148	97.81950	569.70679	-296.82574	42.37627	582.51617	661.06274	199.08083	576.78577	645.73322	
5632	56.310	-186.06117	97.83327	-147.58215	264.26331	8.68358	-170.38484	-46.93316	35.56355	504.23825	254.70763	103.96990	434.36108	116.32869	1114.46204	-728.33783	-64.11185	569.35382	-280.49933	95.73988	568.78461	-298.36780	39.47380	583.42902	659.50787	196.27148	577.33954	644.32898	
5633	56.320	-190.96147	90.09025	-151.54881	263.31827	8.36313	-170.67934	-47.32635	36.15622	503.79016	250.10472	95.07719	430.14877	114.98412	1112.42578	-730.88947	-66.03945	568.65234	-282.20450	93.53851	568.03168	-299.65421	36.77040	584.24426	657.70453	193.42473	578.05664	642.93005	
5634	56.330	-195.40051	82.69601	-155.27039	262.95868	8.08848	-170.92273	-47.69499	36.80476	503.50589	246.28229	86.74400	426.89926	113.92264	1110.68591	-733.64246	-68.19702	568.21954	-283.90775	91.26558	567.41699	-301.43115	33.58040	585.08307	656.27692	190.58368	578.78815	641.53198	
5635	56.340	-199.89154	75.62817	-158.75406	262.66187	7.79394	-171.19316	-48.28461	37.55817	503.07629	240.59938	78.07867	424.27090	112.79648	1108.99878	-736.38599	-70.31271	567.93726	-285.80807	89.26051	566.61108	-303.17331	30.32699	586.19189	654.49243	187.68987	579.67517	639.79340	
5636	56.350	-203.99098	67.90239	-161.61212	262.47879	7.68271	-171.32532	-48.69088	38.18452	502.71347	234.64111	69.52599	422.61700	111.86349	1107.52197	-739.00934	-72.21793	567.52710	-287.76236	87.15822	565.65448	-304.68469	27.35025	587.30426	652.52393	184.71857	580.52625	638.20258	
5637	56.360	-207.69736	60.16872	-164.23915	262.10245	7.37360	-171.66884	-49.06810	38.75155	502.26758	227.20779	60.26323	421.45905	110.94711	1106.13416	-741.80200	-74.86842	566.76587	-290.06213	84.59520	564.90417	-306.61884	23.91934	588.22815	650.37360	181.58542	582.05316	637.71570	
5638	56.370	-210.99884	52.81473	-165.89162	261.79712	7.09410	-172.13342	-49.60669	39.46471	501.81699	222.28287	53.93209	420.59500	110.10891	1104.66895	-744.81720	-76.85233	566.09753	-292.27954	82.76401	563.98718	-308.89017	20.19823	589.20416	648.13892	178.34183	582.78485	635.88995	
5639	56.380	-214.44127	45.54877	-167.39989	261.79391	6.98045	-172.35928	-47.95374	39.17062	501.68771	217.21669	47.44140	419.48654	109.46011	1103.03979	-747.58630	-79.42577	565.51825	-294.53159	80.14097	563.19196	-311.13116	16.76301	590.06787	646.19061	175.02188	583.78101	633.95166	
5640	56.390	-217.89221	38.19837	-169.23329	261.80014	6.92463	-172.50169	-48.12799	39.78629	501.36954	213.84332	42.79022	417.55356	108.70737	1101.54260	-750.93042	-81.78476	565.09528	-296.99460	78.00631	562.46893	-313.38403	13.30491	591.05310	643.83051	168.24913	582.16425	628.36151	
5641	56.400	-221.60657	31.57151	-171.19681	261.75687	6.90633	-172.62872	-46.98443	39.34218	501.44473	214.05321	43.83720	413.93378	108.15881	1099.86340	-753.98309	-84.32970	564.51935	-299.65271	75.57137	561.90741	-315.81723	9.23628	591.95709	641.32220	164.04771	582.64417	625.56702	
5642	56.410	-225.57143	24.68949	-173.73013	261.55273	6.83801	-172.69614	-47.85775	40.31981	500.87057	214.09677	42.40462	414.40152	107.53825	1098.16211	-757.03308	-86.72203	563.61218	-302.25424	73.59019	560.89636	-318.08447	5.04727	593.44659	639.09198	162.92406	587.14111	627.13733	
5643	56.420	-228.69618	17.43807	-176.37506	261.50836	6.83413	-172.73546	-48.64765	41.39197	500.33942	214.88437	44.74314	414.55899	107.08455	1096.40588	-760.54065	-88.97159	561.78119	-305.09018	70.46970	559.62640	-320.10373	0.25830	595.87555	636.15900	158.53529	589.46381	625.26923	
5644	56.430	-229.99535	8.46365	-178.77768	261.31314	6.90857	-173.03770	-49.00339	41.97146	499.74188	213.73820	46.01683	414.71304	106.06149	1094.72949	-764.83325	-91.01430	560.69305	-307.59656	68.36694	558.45667	-322.31216	-3.77845	597.86340	634.01038	150.71733	588.73230	618.61487	
5645	56.440	-232.27171	2.10274	-182.35692	260.91107	6.93262	-173.06175	-48.74501	42.41388	499.46103	213.44954	46.96416	415.22641	104.16387	1092.23572	-769.23083	-93.73227	561.23138	-310.51089	65.62273	558.37695	-324.64063	-8.27661	599.69647	631.12726	146.44118	590.71332	617.27325	
5646	56.450	-233.92282	4.50853	-180.79834	259.60620	8.53438	-174.62987	-49.61966	43.72206	498.44049	213.28943	47.47837	414.48227	101.55954	1089.27319	-773.76062	-96.16162	562.80371	-313.31750	64.26272	559.32239	-327.15094	-12.64721	601.18396	628.65344	142.16180	591.82385	615.18665	
5647	56.460	-232.21443	2.45368	-181.29022	253.13655	11.60567	-173.48444	-51.22818	48.49920	497.39438	212.96823	47.58751	413.66733	98.98492	1086.62720	-777.20764	-98.25930	564.36108	-315.87976	61.89441	560.89307	-329.87967	-16.86680	602.32648	625.86060	138.04123	593.06860	612.73694	
5648	56.470	-231.98294	2.79938	-183.00484	246.23996	15.86554	-170.65475	-51.57227	52.77224	498.61996	213.12073	48.30723	412.89371	96.55804	1085.81616	-779.80316	-99.75776	565.08881	-318.51233	59.51979	561.70154	-331.85910	-20.49018	603.60419	623.57556	134.40456	594.41461	610.61902	
5649	56.480	-231.85081	2.16453	-182.24359	239.06461	23.29983	-168.74574	-52.92231	63.70632	498.33850	212.98956	49.34792	412.30704	95.30358	1086.81384	-782.31586	-101.95825	565.40131	-320.87234	57.32084	561.43591	-334.20193	-23.69288	605.78979	620.76959	131.30000	595.23358	607.92786	
5650	56.490	-231.76643	1.78034	-182.61220	233.18393	32.03194	-168.72186	-56.87511	74.81863	495.77505	212.74115	49.65300	412.42792	94.88747	1088.62708	-784.71387	-104.04003	564.85284	-322.93231	55.31049	560.69086	-336.03040	-26.40805	607.24603	618.77283	128.61198	597.01581	605.79688	
5651	56.500	-231.49049	1.13305	-182.65541	228.22887	44.36351	-171.49927	-62.81292	87.52438	493.16663	213.12563	50.27040	412.09378	94.36928	1090.01917	-786.67822	-105.71123	563.58899	-324.32074	52.89620	559.89343	-337.79761	-28.54860	608.68378	616.72601	126.29444	598.99695	604.31299	
5652	56.510	-231.33864	0.96299	-182.66110	226.26653	56.92303	-174.96866	-69.98669	100.90739	489.43188	213.63651	50.58886	411.91022	93.88544	1089.99316	-788.21564	-108.68063	563.10895	-326.16330	50.85685	559.55261	-340.26288	-30.04505	609.86444	615.04126	124.39994	600.37830	602.39539	
5653	56.520	-231.38214	0.34011	-182.66975	223.96211	70.46368	-179.74258	-78.01430	114.48449	484.78708	213.84190	50.86904	411.40158	93.31058	1089.11072	-790.08423	-111.50887	562.97089	-328.05219	48.74143	559.26953	-341.48511	-31.89851	610.79633	613.49872	123.05661	601.01080	600.67865	
5654	56.530	-230.94872	-0.04802	-182.61365	221.01273	83.90418	-185.62958	-87.37431	126.92800	479.22177	214.62201	51.30433	410.92557	92.02580	1087.65784	-792.36633	-113.67554	563.12585	-329.31201	46.73708	559.08899	-342.92691	-33.01434	611.23004	611.86517	121.59445	601.40808	599.12714	
5655	56.540	-230.85451	-0.52982	-183.03131	215.70319	96.54208	-191.63379	-95.39241	138.11697	472.77469	215.22911	51.66010	410.81308	89.99917	1085.90491	-794.62030	-115.09057	562.92566	-330.38931	44.61903	559.34625	-344.39429	-34.49033	611.58209	610.58148	118.46188	601.78137	597.61511	
5656	56.550	-230.15891	-1.27357	-183.17198	209.88176	108.65125	-197.43166	-103.12737	149.23822	465.46933	215.38565	52.07886	410.45032	87.08727	1083.86804	-796.60333	-117.17698	562.92047	-331.84863	42.84947	559.42767	-346.20349	-35.51109	612.00592	609.93628	118.75925	602.36774	596.50574	
